<?xml version="1.0" encoding="utf-8"?>
<svg xmlns="http://www.w3.org/2000/svg" viewBox="2.5383 2.5072 332.6306 334.4928" width="332.631px" height="334.493px" preserveAspectRatio="none"><path fill="#0033FF" opacity="1.000000" stroke="none" d="M 335.133 36.138 C 335.133 105.826 335.224 182.432 334.86 252.329 C 334.002 254.528 335.389 250.278 334.864 252.259 C 327.454 280.197 311.365 301.544 285.464 314.858 C 272.711 321.413 259.904 327.862 247.167 334.448 C 246.25 334.922 245.714 336.132 245 337 C 243.933 337 242.867 337 241.4 336.531 C 241 320.473 241 304.883 241 289 C 238.366 289 236.388 289 234.41 289 C 174.267 289 114.124 289.02 53.982 288.958 C 49.72 288.953 45.426 288.578 41.205 287.974 C 21.189 285.108 8.35 273.979 2.91 254.404 C 2.743 253.805 3.538 254.838 2.881 254.376 C 2.881 182.688 2.328 108.468 2.627 36.646 C 3.288 36.171 2.544 37.045 2.649 36.638 C 7.255 18.881 18.018 7.267 36.104 2.84 C 36.527 2.736 35.652 3.401 35.945 2.765 C 123.632 2.765 213.645 2.31 301.467 2.609 C 301.942 3.27 300.955 2.544 301.362 2.649 C 319.118 7.255 330.732 18.019 335.16 36.104 C 335.264 36.527 334.41 35.84 335.045 36.133 M 225.495 145 C 182.725 145 139.955 145 97.163 145 C 99.176 193.497 137.999 217.195 169.248 216.803 C 202.439 216.387 238.925 192.11 240.835 145 C 236.046 145 231.269 145 225.495 145 Z" id="object-0" transform="matrix(0.9999999999999999, 0, 0, 0.9999999999999999, -2.2737367544323206e-13, 0)"/></svg>