<svg xmlns="http://www.w3.org/2000/svg" viewBox="2.7486 3.6858 67.6359 22.8046" width="67.6359px" height="22.8046px"><path d="M 30.931 18.86 C 30.931 15.258 29.715 12.658 27.313 11.032 C 26.097 10.226 24.167 9.816 21.507 9.816 L 13.724 9.816 L 13.724 10.895 L 14.21 10.895 C 15.214 10.895 15.837 10.971 16.095 11.093 C 16.338 11.229 16.46 11.564 16.46 12.111 L 16.46 25.837 C 16.46 26.126 16.445 26.339 16.399 26.491 C 16.369 26.627 16.232 26.764 16.019 26.871 C 15.806 26.992 15.198 27.053 14.21 27.053 L 13.724 27.053 L 13.724 28.117 L 21.947 28.117 C 24.927 28.117 27.176 27.327 28.666 25.731 C 30.171 24.15 30.931 21.854 30.931 18.86 Z M 26.583 25.168 C 25.687 26.415 24.227 27.053 22.175 27.053 L 20.473 27.053 C 19.835 27.053 19.439 26.962 19.272 26.81 C 19.105 26.643 19.014 26.247 19.014 25.624 L 19.014 12.339 C 19.014 11.716 19.105 11.321 19.272 11.153 C 19.439 10.986 19.835 10.895 20.473 10.895 L 21.78 10.895 C 23.939 10.895 25.504 11.533 26.477 12.795 C 27.435 14.072 27.921 16.139 27.921 18.997 C 27.921 21.854 27.465 23.922 26.583 25.168 Z M 43.821 17.826 C 43.304 16.732 42.59 15.866 41.693 15.227 C 40.796 14.589 39.808 14.27 38.744 14.27 C 37.072 14.27 35.658 14.954 34.518 16.352 C 33.363 17.72 32.786 19.422 32.786 21.444 C 32.786 22.736 33.044 23.937 33.576 25.016 C 34.093 26.111 34.807 26.977 35.704 27.6 C 36.616 28.239 37.619 28.558 38.699 28.558 C 39.778 28.558 40.781 28.239 41.693 27.6 C 42.59 26.977 43.304 26.111 43.821 25.016 C 44.353 23.922 44.611 22.721 44.611 21.429 C 44.611 20.122 44.353 18.921 43.821 17.826 Z M 41.07 25.898 C 40.523 26.931 39.732 27.448 38.699 27.448 C 37.665 27.448 36.875 26.931 36.327 25.898 C 35.78 24.864 35.506 23.375 35.506 21.444 C 35.506 17.401 36.586 15.379 38.744 15.379 C 39.747 15.379 40.523 15.896 41.07 16.945 C 41.617 17.994 41.891 19.483 41.891 21.429 C 41.891 23.375 41.617 24.864 41.07 25.898 Z M 56.58 24.439 L 55.547 23.983 C 55.106 25.047 54.62 25.807 54.103 26.278 C 53.601 26.749 52.978 26.977 52.263 26.977 C 51.154 26.977 50.287 26.475 49.634 25.472 C 48.995 24.454 48.676 23.071 48.676 21.307 C 48.676 19.544 48.995 18.115 49.634 17.021 C 50.272 15.926 51.123 15.379 52.172 15.379 C 52.598 15.379 52.963 15.47 53.282 15.653 C 53.601 15.82 53.753 15.987 53.753 16.139 C 53.753 16.306 53.677 16.489 53.525 16.717 C 53.373 16.945 53.267 17.142 53.191 17.325 C 53.115 17.507 53.084 17.781 53.084 18.161 C 53.084 18.541 53.221 18.875 53.525 19.179 C 53.799 19.483 54.179 19.635 54.635 19.635 C 55.091 19.635 55.471 19.453 55.775 19.088 C 56.064 18.738 56.216 18.267 56.216 17.69 C 56.216 16.732 55.805 15.911 54.984 15.258 C 54.179 14.604 53.176 14.27 51.975 14.27 C 50.227 14.27 48.783 14.954 47.658 16.352 C 46.518 17.72 45.955 19.468 45.955 21.566 C 45.955 23.663 46.472 25.351 47.536 26.627 C 48.57 27.919 49.938 28.558 51.625 28.558 C 52.826 28.558 53.814 28.239 54.559 27.615 C 55.319 26.992 55.988 25.928 56.58 24.439 Z M 67.212 21.353 C 66.893 21.064 66.528 20.836 66.148 20.669 C 65.768 20.517 65.145 20.35 64.309 20.167 L 62.88 19.818 C 62.044 19.62 61.558 19.483 61.391 19.438 C 61.223 19.392 61.026 19.286 60.767 19.149 C 60.099 18.83 59.764 18.222 59.764 17.325 C 59.764 16.838 60.007 16.398 60.509 16.002 C 61.011 15.607 61.725 15.41 62.667 15.41 C 63.595 15.41 64.461 15.805 65.251 16.58 C 65.571 16.899 65.814 17.234 66.011 17.598 C 66.194 17.948 66.407 18.48 66.65 19.179 L 67.562 19.179 L 67.562 14.376 L 66.65 14.376 L 65.829 15.303 C 64.871 14.619 63.747 14.27 62.455 14.27 C 61.163 14.27 60.144 14.65 59.384 15.394 C 58.639 16.139 58.259 17.142 58.259 18.374 C 58.259 19.97 58.943 21.064 60.327 21.672 C 60.722 21.854 61.345 22.037 62.166 22.234 L 63.686 22.599 C 64.826 22.888 65.616 23.207 66.072 23.557 C 66.528 23.922 66.756 24.439 66.756 25.107 C 66.756 25.761 66.498 26.323 65.951 26.779 C 65.434 27.22 64.643 27.448 63.625 27.448 C 62.607 27.448 61.679 27.053 60.859 26.278 C 60.038 25.503 59.46 24.378 59.111 22.903 L 58.077 22.903 L 58.077 28.315 L 58.989 28.315 L 59.901 27.266 C 61.041 28.132 62.318 28.558 63.731 28.558 C 65.145 28.558 66.27 28.163 67.106 27.357 C 67.942 26.567 68.367 25.533 68.367 24.256 C 68.367 22.964 67.987 22.006 67.212 21.353 Z" transform="matrix(1.2377779483795166, 0, 0, 1.2167670726776123, -14.23865742202571, -8.25800634199399)" fill="#444" id="docz"/>
<style>[data-theme="dark"] #docz {fill: #EAEAEA;}</style>
</svg>