<?xml version="1.0" encoding="UTF-8"?>
<svg version="1.1" xmlns="http://www.w3.org/2000/svg" width="200" height="200">
<path d="M0 0 C66 0 132 0 200 0 C200 66 200 132 200 200 C134 200 68 200 0 200 C0 134 0 68 0 0 Z " fill="#FEFEFE" transform="translate(0,0)"/>
<path d="M0 0 C1.12148437 0.47566406 1.12148437 0.47566406 2.265625 0.9609375 C10.22797885 4.77961741 16.11759494 11.73352548 19.42871094 19.91601562 C20.63183154 24.30483507 20.46975792 28.79345896 20.4375 33.3125 C20.45748047 34.29412109 20.47746094 35.27574219 20.49804688 36.28710938 C20.4920983 45.2754093 18.00699486 52.66006762 12.875 60.0625 C12.37742187 60.79597656 11.87984375 61.52945313 11.3671875 62.28515625 C10 64 10 64 8 65 C8 65.66 8 66.32 8 67 C13.36190101 69.61407872 18.03435204 71.49228528 24 72 C23.55090939 73.48199902 23.09043436 74.96055236 22.625 76.4375 C22.36976562 77.26121094 22.11453125 78.08492188 21.8515625 78.93359375 C21 81 21 81 19 82 C11.64151823 82.75086549 5.79060877 80.2446201 0.125 75.6875 C-3.96886461 73.47681311 -6.55568868 74.03773186 -11.0703125 74.625 C-22.57692399 76.09784627 -32.39475871 74.53654064 -41.9609375 67.7421875 C-45.27322949 64.91214492 -47.64479786 61.63916717 -50 58 C-50.5775 57.175 -51.155 56.35 -51.75 55.5 C-56.73687361 45.52625278 -56.34732935 33.04470505 -53.03125 22.58984375 C-48.9572088 12.35844484 -42.36591068 4.25857168 -32.25 -0.4375 C-22.15247509 -4.60740381 -9.91017219 -4.58252323 0 0 Z " fill="#27433E" transform="translate(55,61)"/>
<path d="M0 0 C8.27399365 7.1707945 13.17530777 14.18943843 14.15625 25.34765625 C14.57930009 36.87645345 12.5067601 45.96498966 5.8125 55.4375 C2.00623373 53.93032074 0.20523554 51.72160963 -2.25 48.5 C-6.85239091 42.42635071 -6.85239091 42.42635071 -13.1875 38.4375 C-10.73278518 45.2898103 -8.35539522 51.8333987 -4.203125 57.8515625 C-3.1875 59.4375 -3.1875 59.4375 -2.1875 62.4375 C-7.60197355 64.24232452 -13.16371424 64.20119274 -18.5 62.1875 C-19.8303125 61.32125 -19.8303125 61.32125 -21.1875 60.4375 C-22.0125 59.9425 -22.8375 59.4475 -23.6875 58.9375 C-31.66082987 50.96417013 -34.20790265 40.90587428 -34.4375 30 C-34.2066604 18.98382143 -32.33937611 11.09256387 -24.70703125 2.8359375 C-17.7314792 -3.55987698 -8.2638376 -4.05090078 0 0 Z " fill="#FCFCFC" transform="translate(48.1875,66.5625)"/>
<path d="M0 0 C5.28382406 0.41441757 8.31098922 1.11158323 12 5 C15.26773843 10.95100331 17.49236291 16.98518506 19.5625 23.4375 C19.85318359 24.32759766 20.14386719 25.21769531 20.44335938 26.13476562 C21.02156928 27.9056143 21.59760858 29.67717331 22.17138672 31.44946289 C23.19209572 34.59128581 24.2339557 37.72568028 25.28295898 40.8581543 C25.75262022 42.26106135 26.21967966 43.66484273 26.68383789 45.06958008 C29.719919 54.21951878 33.15890171 62.81689046 37.6796875 71.33984375 C39 74 39 74 39 76 C36.91731407 76.08126087 34.83371342 76.13930839 32.75 76.1875 C31.00976562 76.23970703 31.00976562 76.23970703 29.234375 76.29296875 C25.60726305 75.964426 24.60582161 75.44660644 22 73 C20.90332031 70.63989258 20.90332031 70.63989258 20.078125 67.89453125 C19.80387695 67.00870361 19.52962891 66.12287598 19.24707031 65.21020508 C18.91803711 64.0889624 18.58900391 62.96771973 18.25 61.8125 C17.1775 58.244375 16.105 54.67625 15 51 C2.13 50.505 2.13 50.505 -11 50 C-11.33 52.64 -11.66 55.28 -12 58 C-12.71560679 60.44027064 -13.50635902 62.85992119 -14.375 65.25 C-14.79523438 66.43078125 -15.21546875 67.6115625 -15.6484375 68.828125 C-16.86567683 71.6847676 -17.8070203 73.81238211 -20 76 C-22.76142303 76.52799676 -25.16365545 76.18598981 -28 76 C-26.66244739 71.85730234 -25.15454642 67.83824231 -23.5 63.8125 C-16.34102835 46.11639563 -9.95035781 28.11023315 -3.7800293 10.04956055 C-3.42851807 9.0212915 -3.07700684 7.99302246 -2.71484375 6.93359375 C-2.25259399 5.5731897 -2.25259399 5.5731897 -1.78100586 4.18530273 C-1 2 -1 2 0 0 Z " fill="#28433E" transform="translate(161,59)"/>
<path d="M0 0 C0.79019531 -0.01160156 1.58039063 -0.02320313 2.39453125 -0.03515625 C11.18134488 0.00798686 18.17313133 2.20630305 24.5 8.375 C26.43649941 12.24799883 26.13288331 16.16659643 25.5 20.375 C19.87092479 36.42066955 6.93782596 48.61035126 -6.77734375 58.10546875 C-7.66542725 58.72188232 -8.55351074 59.3382959 -9.46850586 59.97338867 C-10.13889893 60.43592041 -10.80929199 60.89845215 -11.5 61.375 C-7.14563025 60.89766732 -2.79154255 60.41780741 1.5625 59.9375 C2.79162109 59.80279297 4.02074219 59.66808594 5.28710938 59.52929688 C12.43739606 58.75369037 12.43739606 58.75369037 19.5625 57.78125 C22.2358219 57.41153527 24.74326265 57.27105019 27.4375 57.3125 C28.20964844 57.32152344 28.98179687 57.33054688 29.77734375 57.33984375 C30.34582031 57.35144531 30.91429687 57.36304688 31.5 57.375 C30.5 59.375 30.5 59.375 28.72851562 60.08935547 C27.96216797 60.30479004 27.19582031 60.52022461 26.40625 60.7421875 C25.54902344 60.98630371 24.69179687 61.23041992 23.80859375 61.48193359 C22.41833984 61.86212646 22.41833984 61.86212646 21 62.25 C20.05253906 62.51248535 19.10507813 62.7749707 18.12890625 63.04541016 C15.25562787 63.83363334 12.37849158 64.60606029 9.5 65.375 C8.69175781 65.59542969 7.88351563 65.81585938 7.05078125 66.04296875 C-15.11161309 72.0317741 -15.11161309 72.0317741 -23.3125 67.98828125 C-25.5 66.375 -25.5 66.375 -26.25 64.125 C-24.68130939 58.37313444 -19.01280832 54.80711553 -14.625 51.0625 C-5.32889854 42.99146617 4.22482484 32.8884634 6.5 20.375 C6.63546417 17.36576025 6.62282616 14.38424092 6.5 11.375 C4.58210287 11.65846278 2.66570817 11.9521028 0.75 12.25 C-0.85101563 12.49363281 -0.85101563 12.49363281 -2.484375 12.7421875 C-5.21772792 13.31576674 -7.17690713 13.84946666 -9.5 15.375 C-9.95375 16.344375 -10.4075 17.31375 -10.875 18.3125 C-12.91566845 22.15837515 -14.4231412 22.96377964 -18.5 24.375 C-23.64679312 24.92644212 -27.24212154 24.41634176 -31.5 21.375 C-32.8125 18.6875 -32.8125 18.6875 -32.5 15.375 C-25.38139656 4.00713789 -12.84065257 -0.18852508 0 0 Z " fill="#FB7105" transform="translate(107.5,56.625)"/>
<path d="M0 0 C0.66 0 1.32 0 2 0 C3.10532217 3.1454285 4.20903998 6.2914178 5.3125 9.4375 C5.62123047 10.31599609 5.92996094 11.19449219 6.24804688 12.09960938 C7.17058971 14.73128419 8.08621342 17.36527337 9 20 C9.29696777 20.84578613 9.59393555 21.69157227 9.89990234 22.56298828 C10.31103271 23.75577393 10.31103271 23.75577393 10.73046875 24.97265625 C11.09821411 26.03045288 11.09821411 26.03045288 11.47338867 27.10961914 C12 29 12 29 12 32 C4.74 32 -2.52 32 -10 32 C-7.24573403 21.14495177 -3.59707613 10.59934496 0 0 Z " fill="#F8F9F9" transform="translate(162,72)"/>
<path d="M0 0 C2.40342402 1.09505118 3.95691016 2.2795033 6 4 C5.77347501 7.17134992 4.9392256 8.05609944 2.5625 10.25 C-2.0759103 12.52851734 -5.91568613 12.87981471 -11 12 C-14.125 10 -14.125 10 -16 8 C-15.74310052 4.83157307 -15.41729253 3.39037043 -13.0625 1.1875 C-8.6637544 -0.51813605 -4.65808433 -0.70577035 0 0 Z " fill="#FB7208" transform="translate(111,131)"/>
</svg>
