<?xml version="1.0" encoding="utf-8"?>
<svg xmlns="http://www.w3.org/2000/svg" viewBox="1 1 319.9999 320" width="320px" height="320px" preserveAspectRatio="none"><g id="object-0"><path fill="#0060AD" opacity="1.000000" stroke="none" d=" M177.000000,321.000000 C118.000023,321.000000 59.500042,321.000000 1.000047,321.000000 C1.000031,214.333389 1.000031,107.666786 1.000016,1.000133 C107.666565,1.000089 214.333130,1.000089 320.999756,1.000044 C320.999847,107.666534 320.999847,214.333069 320.999939,320.999817 C273.166656,321.000000 225.333328,321.000000 177.000000,321.000000 M231.557953,298.067688 C244.380005,291.791870 255.930573,283.545959 266.361237,273.951874 C279.826752,261.566345 290.614288,247.012360 298.850861,230.573471 C307.836853,212.638885 313.193298,193.616364 314.809998,173.770340 C316.039337,158.679657 314.408722,143.632050 311.165039,128.682220 C305.766754,103.802162 294.724426,81.818909 278.122131,62.836014 C262.546722,45.027275 244.051071,30.949810 221.839432,21.833725 C205.537918,15.143277 188.704956,11.151081 171.297607,10.142389 C149.859207,8.900114 128.963058,12.128328 108.760506,19.903160 C89.644157,27.259968 72.564438,37.758812 57.786514,51.820606 C42.844769,66.038284 31.196104,82.691101 23.041166,101.709885 C16.729862,116.428986 12.248116,131.780090 11.189248,147.680054 C9.598686,171.563950 11.927548,195.063446 20.922503,217.694046 C31.290697,243.779633 47.536106,265.457489 69.445496,282.588196 C86.965088,296.286591 106.850731,305.537842 128.786591,310.532806 C147.727524,314.845795 166.732315,315.103149 185.717728,312.777802 C201.525604,310.841614 216.492172,305.259583 231.557953,298.067688 z"/><path fill="#0060AD" opacity="1.000000" stroke="none" d="M 151.998 193.505 C 151.833 184.57 152.059 172.868 151.482 162.385 C 163.834 162.385 175.56 162.385 188.293 162.385 C 188.293 171.969 188.293 181.778 188.293 191.78 C 196.715 191.78 204.133 191.78 211.85 191.78 C 211.85 181.957 211.85 172.348 211.85 162.37 C 223.532 162.37 234.925 162.37 246.746 162.37 C 246.823 163.611 246.987 165.04 246.989 166.469 C 247.005 187.791 248.098 209.144 246.957 230.436 C 245.016 266.66 217.37 277.959 203.999 282.833 C 190.111 286.67 175.963 287.689 161.317 286.786 C 161.317 275.369 161.317 263.989 161.317 252.387 C 214.493 259.129 214.207 228.761 212.078 228.849 C 211.763 228.862 191.288 229.336 191.288 229.336 C 191.288 229.336 152.667 229.806 151.998 193.505 Z"/><path fill="#0060AD" opacity="1.000000" stroke="none" d=" M64.272873,104.060074 C99.350266,104.013329 133.948547,104.013329 168.772522,104.013329 C168.772522,116.037086 168.772522,127.642487 168.772522,139.723236 C157.481247,139.723236 146.085403,139.723236 134.231155,139.723236 C134.231155,169.241470 134.231155,198.291977 134.231155,227.670166 C122.052536,227.670166 110.328911,227.670166 98.140381,227.670166 C98.140381,198.667267 98.140381,169.616394 98.140381,140.094757 C86.295654,140.094757 74.898788,140.094757 63.793766,140.094757 C63.793766,127.779755 63.793766,115.943283 64.272873,104.060074 z"/></g></svg>