<svg xmlns="http://www.w3.org/2000/svg" viewBox="0 0 48 48" fill="none">
  <rect width="48" height="48" rx="12" fill="#2563EB"/>
  <!-- Q letter mark representing Q&A -->
  <path d="M24 10C16.268 10 10 16.268 10 24C10 31.732 16.268 38 24 38C27.04 38 29.856 37.024 32.136 35.368L36.586 39.818L39.414 36.99L34.964 32.54C36.944 30.184 38 27.224 38 24C38 16.268 31.732 10 24 10Z" fill="white"/>
  <path d="M24 14C18.477 14 14 18.477 14 24C14 29.523 18.477 34 24 34C26.343 34 28.511 33.228 30.258 31.93L27.428 29.1C26.46 29.676 25.268 30 24 30C20.686 30 18 27.314 18 24C18 20.686 20.686 18 24 18C27.314 18 30 20.686 30 24C30 25.268 29.676 26.46 29.1 27.428L31.93 30.258C33.228 28.511 34 26.343 34 24C34 18.477 29.523 14 24 14Z" fill="#2563EB"/>
</svg>
